# MagicaVoxel @ Ephtracy

# group
o 

# material
mtllib shovel.vox.mtl
usemtl palette

# normals
vn -1 0 0
vn 1 0 0
vn 0 0 1
vn 0 0 -1
vn 0 -1 0
vn 0 1 0

# texcoords
vt 0.935547 0.5
vt 0.955078 0.5
vt 0.986328 0.5

# verts
v -1.1 0.2 0.2
v -1.1 0.2 -0.4
v -1.1 0.3 0.2
v -1.1 0.3 -0.4
v -0.9 0.2 0
v -0.9 0.2 -0.2
v -0.9 0.3 0
v -0.9 0.3 -0.2
v 0.3 0.1 0
v 0.3 0.1 -0.2
v 0.3 0.2 0.2
v 0.3 0.2 0
v 0.3 0.2 -0.2
v 0.3 0.2 -0.4
v 0.3 0.3 0.1
v 0.3 0.3 0
v 0.3 0.3 -0.2
v 0.3 0.3 -0.3
v 0.3 0.4 0.2
v 0.3 0.4 0.1
v 0.3 0.4 -0.3
v 0.3 0.4 -0.4
v 0.4 0.3 0.3
v 0.4 0.3 0.2
v 0.4 0.3 -0.4
v 0.4 0.3 -0.5
v 0.4 0.4 0.3
v 0.4 0.4 0.2
v 0.4 0.4 -0.4
v 0.4 0.4 -0.5
v 0.6 0.3 0.2
v 0.6 0.3 0.1
v 0.6 0.3 -0.3
v 0.6 0.3 -0.4
v 0.6 0.4 0.2
v 0.6 0.4 0.1
v 0.6 0.4 -0.3
v 0.6 0.4 -0.4
v 0.9 0.3 0.1
v 0.9 0.3 0
v 0.9 0.3 -0.2
v 0.9 0.3 -0.3
v 0.9 0.4 0.1
v 0.9 0.4 0
v 0.9 0.4 -0.2
v 0.9 0.4 -0.3
v 1 0.3 0
v 1 0.3 -0.2
v 1 0.4 0
v 1 0.4 -0.2
v -1 0.2 0
v -1 0.2 -0.2
v -1 0.3 0
v -1 0.3 -0.2
v -0.9 0.2 0.2
v -0.9 0.2 0.1
v -0.9 0.2 -0.3
v -0.9 0.2 -0.4
v -0.9 0.3 0.2
v -0.9 0.3 0.1
v -0.9 0.3 -0.3
v -0.9 0.3 -0.4
v -0.8 0.2 0.1
v -0.8 0.2 0
v -0.8 0.2 -0.2
v -0.8 0.2 -0.3
v -0.8 0.3 0.1
v -0.8 0.3 0
v -0.8 0.3 -0.2
v -0.8 0.3 -0.3
v 0.4 0.3 0.2
v 0.4 0.3 0.1
v 0.4 0.3 -0.3
v 0.4 0.3 -0.4
v 0.4 0.4 0.2
v 0.4 0.4 0.1
v 0.4 0.4 -0.3
v 0.4 0.4 -0.4
v 0.6 0.1 0
v 0.6 0.1 -0.2
v 0.6 0.2 0
v 0.6 0.2 -0.2
v 0.7 0.3 0.3
v 0.7 0.3 0.2
v 0.7 0.3 -0.4
v 0.7 0.3 -0.5
v 0.7 0.4 0.3
v 0.7 0.4 0.2
v 0.7 0.4 -0.4
v 0.7 0.4 -0.5
v 1 0.2 0.2
v 1 0.2 -0.4
v 1 0.3 0
v 1 0.3 -0.2
v 1 0.4 0.2
v 1 0.4 0
v 1 0.4 -0.2
v 1 0.4 -0.4
v 1.1 0.3 0
v 1.1 0.3 -0.2
v 1.1 0.4 0
v 1.1 0.4 -0.2
v 0.4 0.3 0.3
v 0.4 0.4 0.3
v 0.7 0.3 0.3
v 0.7 0.4 0.3
v -1.1 0.2 0.2
v -1.1 0.3 0.2
v -0.9 0.2 0.2
v -0.9 0.3 0.2
v 0.3 0.2 0.2
v 0.3 0.4 0.2
v 0.4 0.3 0.2
v 0.4 0.4 0.2
v 0.7 0.3 0.2
v 0.7 0.4 0.2
v 1 0.2 0.2
v 1 0.4 0.2
v -0.9 0.2 0.1
v -0.9 0.3 0.1
v -0.8 0.2 0.1
v -0.8 0.3 0.1
v -0.8 0.2 0
v -0.8 0.3 0
v -0.7 0.2 0
v -0.7 0.3 0
v 0.2 0.2 0
v 0.2 0.3 0
v 0.3 0.1 0
v 0.3 0.2 0
v 0.3 0.3 0
v 0.6 0.1 0
v 0.6 0.2 0
v 1 0.3 0
v 1 0.4 0
v 1.1 0.3 0
v 1.1 0.4 0
v -1 0.2 -0.2
v -1 0.3 -0.2
v -0.9 0.2 -0.2
v -0.9 0.3 -0.2
v 0.9 0.3 -0.2
v 0.9 0.4 -0.2
v 1 0.3 -0.2
v 1 0.4 -0.2
v 0.3 0.3 -0.3
v 0.3 0.4 -0.3
v 0.4 0.3 -0.3
v 0.4 0.4 -0.3
v 0.6 0.3 -0.3
v 0.6 0.4 -0.3
v 0.9 0.3 -0.3
v 0.9 0.4 -0.3
v 0.4 0.3 -0.4
v 0.4 0.4 -0.4
v 0.6 0.3 -0.4
v 0.6 0.4 -0.4
v 0.4 0.3 0.2
v 0.4 0.4 0.2
v 0.6 0.3 0.2
v 0.6 0.4 0.2
v 0.3 0.3 0.1
v 0.3 0.4 0.1
v 0.4 0.3 0.1
v 0.4 0.4 0.1
v 0.6 0.3 0.1
v 0.6 0.4 0.1
v 0.9 0.3 0.1
v 0.9 0.4 0.1
v -1 0.2 0
v -1 0.3 0
v -0.9 0.2 0
v -0.9 0.3 0
v 0.9 0.3 0
v 0.9 0.4 0
v 1 0.3 0
v 1 0.4 0
v -0.8 0.2 -0.2
v -0.8 0.3 -0.2
v -0.7 0.2 -0.2
v -0.7 0.3 -0.2
v 0.2 0.2 -0.2
v 0.2 0.3 -0.2
v 0.3 0.1 -0.2
v 0.3 0.2 -0.2
v 0.3 0.3 -0.2
v 0.6 0.1 -0.2
v 0.6 0.2 -0.2
v 1 0.3 -0.2
v 1 0.4 -0.2
v 1.1 0.3 -0.2
v 1.1 0.4 -0.2
v -0.9 0.2 -0.3
v -0.9 0.3 -0.3
v -0.8 0.2 -0.3
v -0.8 0.3 -0.3
v -1.1 0.2 -0.4
v -1.1 0.3 -0.4
v -0.9 0.2 -0.4
v -0.9 0.3 -0.4
v 0.3 0.2 -0.4
v 0.3 0.4 -0.4
v 0.4 0.3 -0.4
v 0.4 0.4 -0.4
v 0.7 0.3 -0.4
v 0.7 0.4 -0.4
v 1 0.2 -0.4
v 1 0.4 -0.4
v 0.4 0.3 -0.5
v 0.4 0.4 -0.5
v 0.7 0.3 -0.5
v 0.7 0.4 -0.5
v 0.3 0.1 0
v 0.6 0.1 0
v 0.3 0.1 -0.2
v 0.6 0.1 -0.2
v -1.1 0.2 0.2
v -0.9 0.2 0.2
v 0.3 0.2 0.2
v 1 0.2 0.2
v -0.9 0.2 0.1
v -0.8 0.2 0.1
v -1 0.2 0
v -0.9 0.2 0
v -0.8 0.2 0
v -0.7 0.2 0
v 0.2 0.2 0
v 0.3 0.2 0
v 0.6 0.2 0
v -1 0.2 -0.2
v -0.9 0.2 -0.2
v -0.8 0.2 -0.2
v -0.7 0.2 -0.2
v 0.2 0.2 -0.2
v 0.3 0.2 -0.2
v 0.6 0.2 -0.2
v -0.9 0.2 -0.3
v -0.8 0.2 -0.3
v -1.1 0.2 -0.4
v -0.9 0.2 -0.4
v 0.3 0.2 -0.4
v 1 0.2 -0.4
v 0.4 0.3 0.3
v 0.7 0.3 0.3
v 0.4 0.3 0.2
v 0.7 0.3 0.2
v 1 0.3 0
v 1.1 0.3 0
v 1 0.3 -0.2
v 1.1 0.3 -0.2
v 0.4 0.3 -0.4
v 0.7 0.3 -0.4
v 0.4 0.3 -0.5
v 0.7 0.3 -0.5
v -1.1 0.3 0.2
v -0.9 0.3 0.2
v 0.4 0.3 0.2
v 0.6 0.3 0.2
v -0.9 0.3 0.1
v -0.8 0.3 0.1
v 0.3 0.3 0.1
v 0.4 0.3 0.1
v 0.6 0.3 0.1
v 0.9 0.3 0.1
v -1 0.3 0
v -0.9 0.3 0
v -0.8 0.3 0
v -0.7 0.3 0
v 0.2 0.3 0
v 0.3 0.3 0
v 0.5 0.3 0
v 0.9 0.3 0
v 1 0.3 0
v -1 0.3 -0.2
v -0.9 0.3 -0.2
v -0.8 0.3 -0.2
v -0.7 0.3 -0.2
v 0.2 0.3 -0.2
v 0.3 0.3 -0.2
v 0.5 0.3 -0.2
v 0.9 0.3 -0.2
v 1 0.3 -0.2
v -0.9 0.3 -0.3
v -0.8 0.3 -0.3
v 0.3 0.3 -0.3
v 0.4 0.3 -0.3
v 0.6 0.3 -0.3
v 0.9 0.3 -0.3
v -1.1 0.3 -0.4
v -0.9 0.3 -0.4
v 0.4 0.3 -0.4
v 0.6 0.3 -0.4
v 0.4 0.4 0.3
v 0.7 0.4 0.3
v 0.3 0.4 0.2
v 0.4 0.4 0.2
v 0.6 0.4 0.2
v 0.7 0.4 0.2
v 1 0.4 0.2
v 0.3 0.4 0.1
v 0.4 0.4 0.1
v 0.6 0.4 0.1
v 0.9 0.4 0.1
v 0.9 0.4 0
v 1 0.4 0
v 1.1 0.4 0
v 0.9 0.4 -0.2
v 1 0.4 -0.2
v 1.1 0.4 -0.2
v 0.3 0.4 -0.3
v 0.4 0.4 -0.3
v 0.6 0.4 -0.3
v 0.9 0.4 -0.3
v 0.3 0.4 -0.4
v 0.4 0.4 -0.4
v 0.6 0.4 -0.4
v 0.7 0.4 -0.4
v 1 0.4 -0.4
v 0.4 0.4 -0.5
v 0.7 0.4 -0.5

# faces
f 3/3/1 2/3/1 1/3/1
f 4/3/1 2/3/1 3/3/1
f 7/3/1 6/3/1 5/3/1
f 8/3/1 6/3/1 7/3/1
f 12/1/1 10/1/1 9/1/1
f 13/1/1 10/1/1 12/1/1
f 15/1/1 12/1/1 11/1/1
f 16/1/1 12/1/1 15/1/1
f 17/1/1 14/1/1 13/1/1
f 18/1/1 14/1/1 17/1/1
f 19/1/1 15/1/1 11/1/1
f 20/1/1 15/1/1 19/1/1
f 21/1/1 14/1/1 18/1/1
f 22/1/1 14/1/1 21/1/1
f 27/1/1 24/1/1 23/1/1
f 28/1/1 24/1/1 27/1/1
f 29/1/1 26/1/1 25/1/1
f 30/1/1 26/1/1 29/1/1
f 35/1/1 32/1/1 31/1/1
f 36/1/1 32/1/1 35/1/1
f 37/1/1 34/1/1 33/1/1
f 38/1/1 34/1/1 37/1/1
f 43/1/1 40/1/1 39/1/1
f 44/1/1 40/1/1 43/1/1
f 45/1/1 42/1/1 41/1/1
f 46/1/1 42/1/1 45/1/1
f 49/1/1 48/1/1 47/1/1
f 50/1/1 48/1/1 49/1/1
f 51/3/2 52/3/2 53/3/2
f 53/3/2 52/3/2 54/3/2
f 55/3/2 56/3/2 59/3/2
f 59/3/2 56/3/2 60/3/2
f 57/3/2 58/3/2 61/3/2
f 61/3/2 58/3/2 62/3/2
f 63/3/2 64/3/2 67/3/2
f 67/3/2 64/3/2 68/3/2
f 65/3/2 66/3/2 69/3/2
f 69/3/2 66/3/2 70/3/2
f 71/1/2 72/1/2 75/1/2
f 75/1/2 72/1/2 76/1/2
f 73/1/2 74/1/2 77/1/2
f 77/1/2 74/1/2 78/1/2
f 79/1/2 80/1/2 81/1/2
f 81/1/2 80/1/2 82/1/2
f 83/1/2 84/1/2 87/1/2
f 87/1/2 84/1/2 88/1/2
f 85/1/2 86/1/2 89/1/2
f 89/1/2 86/1/2 90/1/2
f 91/1/2 92/1/2 93/1/2
f 93/1/2 92/1/2 94/1/2
f 91/1/2 93/1/2 95/1/2
f 95/1/2 93/1/2 96/1/2
f 94/1/2 92/1/2 97/1/2
f 97/1/2 92/1/2 98/1/2
f 99/1/2 100/1/2 101/1/2
f 101/1/2 100/1/2 102/1/2
f 105/1/3 104/1/3 103/1/3
f 106/1/3 104/1/3 105/1/3
f 109/3/3 108/3/3 107/3/3
f 110/3/3 108/3/3 109/3/3
f 113/1/3 112/1/3 111/1/3
f 114/1/3 112/1/3 113/1/3
f 115/1/3 113/1/3 111/1/3
f 117/1/3 115/1/3 111/1/3
f 117/1/3 116/1/3 115/1/3
f 118/1/3 116/1/3 117/1/3
f 121/3/3 120/3/3 119/3/3
f 122/3/3 120/3/3 121/3/3
f 125/3/3 124/3/3 123/3/3
f 126/3/3 124/3/3 125/3/3
f 127/2/3 126/2/3 125/2/3
f 128/2/3 126/2/3 127/2/3
f 130/3/3 128/3/3 127/3/3
f 131/3/3 128/3/3 130/3/3
f 132/1/3 130/1/3 129/1/3
f 133/1/3 130/1/3 132/1/3
f 136/1/3 135/1/3 134/1/3
f 137/1/3 135/1/3 136/1/3
f 140/3/3 139/3/3 138/3/3
f 141/3/3 139/3/3 140/3/3
f 144/1/3 143/1/3 142/1/3
f 145/1/3 143/1/3 144/1/3
f 148/1/3 147/1/3 146/1/3
f 149/1/3 147/1/3 148/1/3
f 152/1/3 151/1/3 150/1/3
f 153/1/3 151/1/3 152/1/3
f 156/1/3 155/1/3 154/1/3
f 157/1/3 155/1/3 156/1/3
f 158/1/4 159/1/4 160/1/4
f 160/1/4 159/1/4 161/1/4
f 162/1/4 163/1/4 164/1/4
f 164/1/4 163/1/4 165/1/4
f 166/1/4 167/1/4 168/1/4
f 168/1/4 167/1/4 169/1/4
f 170/3/4 171/3/4 172/3/4
f 172/3/4 171/3/4 173/3/4
f 174/1/4 175/1/4 176/1/4
f 176/1/4 175/1/4 177/1/4
f 178/3/4 179/3/4 180/3/4
f 180/3/4 179/3/4 181/3/4
f 180/2/4 181/2/4 182/2/4
f 182/2/4 181/2/4 183/2/4
f 182/3/4 183/3/4 185/3/4
f 185/3/4 183/3/4 186/3/4
f 184/1/4 185/1/4 187/1/4
f 187/1/4 185/1/4 188/1/4
f 189/1/4 190/1/4 191/1/4
f 191/1/4 190/1/4 192/1/4
f 193/3/4 194/3/4 195/3/4
f 195/3/4 194/3/4 196/3/4
f 197/3/4 198/3/4 199/3/4
f 199/3/4 198/3/4 200/3/4
f 201/1/4 202/1/4 203/1/4
f 203/1/4 202/1/4 204/1/4
f 201/1/4 203/1/4 205/1/4
f 201/1/4 205/1/4 207/1/4
f 205/1/4 206/1/4 207/1/4
f 207/1/4 206/1/4 208/1/4
f 209/1/4 210/1/4 211/1/4
f 211/1/4 210/1/4 212/1/4
f 215/1/5 214/1/5 213/1/5
f 216/1/5 214/1/5 215/1/5
f 221/3/5 218/3/5 217/3/5
f 223/3/5 221/3/5 217/3/5
f 223/3/5 222/3/5 221/3/5
f 224/3/5 222/3/5 223/3/5
f 225/3/5 222/3/5 224/3/5
f 228/1/5 220/1/5 219/1/5
f 229/1/5 220/1/5 228/1/5
f 230/3/5 223/3/5 217/3/5
f 231/3/5 225/3/5 224/3/5
f 231/3/5 226/3/5 225/3/5
f 232/3/5 226/3/5 231/3/5
f 233/2/5 227/2/5 226/2/5
f 233/3/5 226/3/5 232/3/5
f 234/3/5 228/3/5 227/3/5
f 234/2/5 227/2/5 233/2/5
f 235/3/5 228/3/5 234/3/5
f 236/1/5 220/1/5 229/1/5
f 237/3/5 232/3/5 231/3/5
f 237/3/5 231/3/5 230/3/5
f 238/3/5 232/3/5 237/3/5
f 239/3/5 230/3/5 217/3/5
f 239/3/5 237/3/5 230/3/5
f 240/3/5 237/3/5 239/3/5
f 241/1/5 236/1/5 235/1/5
f 242/1/5 220/1/5 236/1/5
f 242/1/5 236/1/5 241/1/5
f 245/1/5 244/1/5 243/1/5
f 246/1/5 244/1/5 245/1/5
f 249/1/5 248/1/5 247/1/5
f 250/1/5 248/1/5 249/1/5
f 253/1/5 252/1/5 251/1/5
f 254/1/5 252/1/5 253/1/5
f 255/3/6 256/3/6 259/3/6
f 257/1/6 258/1/6 262/1/6
f 262/1/6 258/1/6 263/1/6
f 259/3/6 260/3/6 265/3/6
f 255/3/6 259/3/6 265/3/6
f 265/3/6 260/3/6 266/3/6
f 266/3/6 260/3/6 267/3/6
f 263/1/6 264/1/6 270/1/6
f 262/1/6 263/1/6 270/1/6
f 261/1/6 262/1/6 270/1/6
f 270/1/6 264/1/6 271/1/6
f 271/1/6 264/1/6 272/1/6
f 255/3/6 265/3/6 274/3/6
f 267/3/6 268/3/6 275/3/6
f 266/3/6 267/3/6 275/3/6
f 275/3/6 268/3/6 276/3/6
f 268/2/6 269/2/6 277/2/6
f 276/3/6 268/3/6 277/3/6
f 270/3/6 271/3/6 278/3/6
f 277/2/6 269/2/6 278/2/6
f 269/3/6 270/3/6 278/3/6
f 278/3/6 271/3/6 279/3/6
f 272/1/6 273/1/6 280/1/6
f 279/3/6 271/3/6 280/3/6
f 271/1/6 272/1/6 280/1/6
f 280/1/6 273/1/6 281/1/6
f 281/1/6 273/1/6 282/1/6
f 275/3/6 276/3/6 283/3/6
f 274/3/6 275/3/6 283/3/6
f 283/3/6 276/3/6 284/3/6
f 280/1/6 281/1/6 285/1/6
f 279/1/6 280/1/6 285/1/6
f 285/1/6 281/1/6 286/1/6
f 286/1/6 281/1/6 287/1/6
f 287/1/6 281/1/6 288/1/6
f 255/3/6 274/3/6 289/3/6
f 274/3/6 283/3/6 289/3/6
f 289/3/6 283/3/6 290/3/6
f 286/1/6 287/1/6 291/1/6
f 291/1/6 287/1/6 292/1/6
f 293/1/6 294/1/6 296/1/6
f 296/1/6 294/1/6 297/1/6
f 297/1/6 294/1/6 298/1/6
f 295/1/6 296/1/6 300/1/6
f 300/1/6 296/1/6 301/1/6
f 298/1/6 299/1/6 302/1/6
f 297/1/6 298/1/6 302/1/6
f 302/1/6 299/1/6 303/1/6
f 303/1/6 299/1/6 304/1/6
f 304/1/6 299/1/6 305/1/6
f 305/1/6 306/1/6 308/1/6
f 308/1/6 306/1/6 309/1/6
f 307/1/6 308/1/6 313/1/6
f 310/1/6 311/1/6 314/1/6
f 314/1/6 311/1/6 315/1/6
f 312/1/6 313/1/6 316/1/6
f 316/1/6 313/1/6 317/1/6
f 313/1/6 308/1/6 318/1/6
f 317/1/6 313/1/6 318/1/6
f 316/1/6 317/1/6 319/1/6
f 315/1/6 316/1/6 319/1/6
f 319/1/6 317/1/6 320/1/6
